<svg width="300" height="224" viewBox="0 0 300 224" fill="none" xmlns="http://www.w3.org/2000/svg">
<path fill-rule="evenodd" clip-rule="evenodd" d="M254.378 149.886C273.278 141.074 287.902 125.115 295.035 105.52C302.168 85.9254 301.225 64.2995 292.413 45.4001C283.601 26.5006 267.642 11.8758 248.047 4.74288C228.452 -2.39004 206.826 -1.44676 187.927 7.36522L45.406 73.8034C26.5048 82.6154 11.8783 98.5749 4.74418 118.171C-2.38997 137.767 -1.44736 159.395 7.36462 178.296C16.1766 197.197 32.1361 211.824 51.7323 218.958C71.3285 226.092 92.9561 225.149 111.857 216.337L254.378 149.886ZM183.065 154.211L243.305 126.128C255.764 120.167 265.366 109.529 270.024 96.5269C274.683 83.525 274.022 69.2097 268.185 56.6925C262.347 44.1753 251.806 34.4678 238.851 29.6799C225.896 24.892 211.575 25.4106 199 31.1231L138.76 59.2053L183.065 154.211Z" fill="white"/>
</svg>
