<svg width="210" height="210" viewBox="0 0 210 210" fill="none" xmlns="http://www.w3.org/2000/svg">
<path fill-rule="evenodd" clip-rule="evenodd" d="M209.667 104.833C209.667 132.637 198.622 159.302 178.962 178.962C159.302 198.622 132.637 209.667 104.833 209.667C77.0298 209.667 50.365 198.622 30.705 178.962C11.0449 159.302 0 132.637 0 104.833C0 77.0298 11.0449 50.365 30.705 30.705C50.365 11.0449 77.0298 0 104.833 0C132.637 0 159.302 11.0449 178.962 30.705C198.622 50.365 209.667 77.0298 209.667 104.833ZM160.945 117.741C160.165 121.125 158.073 124.061 155.13 125.904C152.186 127.746 148.632 128.345 145.247 127.569L58.5494 107.651C55.1609 106.872 52.2204 104.78 50.3748 101.833C48.5292 98.8864 47.9297 95.3274 48.7082 91.9388C49.4867 88.5503 51.5794 85.6098 54.526 83.7642C57.4725 81.9186 61.0315 81.3191 64.4201 82.0976L151.117 102.029C152.794 102.415 154.379 103.128 155.78 104.127C157.182 105.126 158.373 106.39 159.285 107.849C160.198 109.308 160.814 110.933 161.099 112.63C161.384 114.327 161.332 116.064 160.945 117.741Z" fill="white"/>
</svg>
